<svg xmlns="http://www.w3.org/2000/svg" xmlns:xlink="http://www.w3.org/1999/xlink" viewBox="0,0,256,256" width="200px" height="200px" fill-rule="nonzero"><g fill="none" fill-rule="nonzero" stroke="none" stroke-width="1" stroke-linecap="butt" stroke-linejoin="miter" stroke-miterlimit="10" stroke-dasharray="" stroke-dashoffset="0" font-family="none" font-weight="none" font-size="none" text-anchor="none" style="mix-blend-mode: normal"><g transform="scale(2.56,2.56)"><circle cx="14" cy="29" r="2" fill="#cd4054"></circle><circle cx="78" cy="13" r="1" fill="#e2ba34"></circle><circle cx="51" cy="50" r="37" fill="#d1ccbf"></circle><circle cx="84" cy="15" r="4" fill="#e2ba34"></circle><circle cx="88" cy="24" r="2" fill="#cd4054"></circle><circle cx="82" cy="76" r="2" fill="#eecb62"></circle><circle cx="14" cy="63" r="4" fill="#eecb62"></circle><circle cx="26" cy="87" r="2" fill="#cd4054"></circle><circle cx="20.5" cy="41.5" r="2.5" fill="#ffffff"></circle><circle cx="15" cy="71" r="1" fill="#e2ba34"></circle><circle cx="81" cy="34" r="1" fill="#ffffff"></circle><path d="M29.005,65.001l-0.004,-30c0,-3.866 3.134,-7.001 7,-7.001h29.999c3.866,0 7,3.134 7,7v30c0,3.866 -3.134,7 -7,7h-29.995c-3.866,0 -7,-3.133 -7,-6.999z" fill="#ee3e54"></path><path d="M66,28.4c3.639,0 6.6,2.961 6.6,6.6v30c0,3.639 -2.961,6.6 -6.6,6.6h-30c-3.639,0 -6.6,-2.961 -6.6,-6.6v-30c0,-3.639 2.961,-6.6 6.6,-6.6h30M66,27h-30c-4.418,0 -8,3.582 -8,8v30c0,4.418 3.582,8 8,8h30c4.418,0 8,-3.582 8,-8v-30c0,-4.418 -3.582,-8 -8,-8z" fill="#472b29"></path><path d="M51.5,31h-3c-0.276,0 -0.5,-0.224 -0.5,-0.5c0,-0.276 0.224,-0.5 0.5,-0.5h3c0.276,0 0.5,0.224 0.5,0.5c0,0.276 -0.224,0.5 -0.5,0.5z" fill="#472b29"></path><path d="M65.5,70h-29c-3.033,0 -5.5,-2.468 -5.5,-5.5v-29c0,-3.033 2.467,-5.5 5.5,-5.5h9c0.276,0 0.5,0.224 0.5,0.5c0,0.276 -0.224,0.5 -0.5,0.5h-9c-2.481,0 -4.5,2.019 -4.5,4.5v29c0,2.481 2.019,4.5 4.5,4.5h29c2.481,0 4.5,-2.019 4.5,-4.5v-4c0,-0.276 0.224,-0.5 0.5,-0.5c0.276,0 0.5,0.224 0.5,0.5v4c0,3.032 -2.468,5.5 -5.5,5.5z" fill="#472b29"></path><path d="M70.5,58c-0.276,0 -0.5,-0.224 -0.5,-0.5v-10c0,-0.276 0.224,-0.5 0.5,-0.5c0.276,0 0.5,0.224 0.5,0.5v10c0,0.276 -0.224,0.5 -0.5,0.5z" fill="#472b29"></path><path d="M70.5,41c-0.276,0 -0.5,-0.224 -0.5,-0.5v-5c0,-2.481 -2.019,-4.5 -4.5,-4.5h-11c-0.276,0 -0.5,-0.224 -0.5,-0.5c0,-0.276 0.224,-0.5 0.5,-0.5h11c3.032,0 5.5,2.467 5.5,5.5v5c0,0.276 -0.224,0.5 -0.5,0.5z" fill="#472b29"></path><path d="M60.748,37.482v19.874c0,2.036 -1.442,3.775 -3.436,4.168l-1.262,0.233c-1.676,0.329 -3.319,-0.721 -3.701,-2.407c-0.393,-1.707 0.679,-3.415 2.386,-3.807c0.021,0 1.145,-0.223 2.174,-0.424c0.997,-0.191 1.718,-1.071 1.718,-2.079v-9.141c0,-0.467 -0.435,-0.817 -0.902,-0.721l-10.54,2.522c-0.488,0.106 -0.838,0.541 -0.838,1.039v13.988c0,2.036 -1.442,3.775 -3.436,4.168l-1.262,0.233c-1.676,0.329 -3.319,-0.721 -3.701,-2.397c-0.393,-1.718 0.679,-3.425 2.386,-3.818c0.021,0 1.145,-0.223 2.174,-0.424c0.997,-0.191 1.718,-1.071 1.718,-2.079v-15.153c0,-0.742 0.52,-1.4 1.262,-1.548l13.977,-3.266c0.657,-0.138 1.283,0.371 1.283,1.039z" fill="#fdfcef"></path><path d="M41.117,65.375c-1.606,0 -3.033,-1.095 -3.403,-2.718c-0.433,-1.891 0.751,-3.782 2.64,-4.216c0.1,-0.017 0.645,-0.124 1.299,-0.253l0.86,-0.169c0.81,-0.154 1.396,-0.861 1.396,-1.683v-14.95c0,-0.919 0.651,-1.716 1.548,-1.896l13.806,-3.226c0.431,-0.092 0.863,0.017 1.2,0.29c0.335,0.272 0.527,0.674 0.527,1.101v19.61c0,2.176 -1.556,4.06 -3.698,4.48l-1.251,0.231c-1.872,0.367 -3.669,-0.804 -4.091,-2.661c-0.21,-0.911 -0.051,-1.853 0.449,-2.647c0.498,-0.795 1.276,-1.349 2.19,-1.559c0.1,-0.017 0.63,-0.121 1.272,-0.247l0.888,-0.175c0.809,-0.154 1.395,-0.861 1.395,-1.683v-9.02c0,-0.142 -0.081,-0.229 -0.129,-0.269c-0.088,-0.071 -0.2,-0.1 -0.312,-0.076l-10.41,2.493c-0.316,0.069 -0.541,0.346 -0.541,0.66v13.802c0,2.176 -1.555,4.06 -3.698,4.48l-1.251,0.231c-0.23,0.049 -0.46,0.07 -0.686,0.07zM59.56,36.983c-0.045,0 -0.091,0.004 -0.136,0.014l-13.809,3.226c-0.56,0.112 -0.957,0.6 -0.957,1.163v14.951c0,1.181 -0.842,2.198 -2.003,2.419l-0.858,0.169c-1.308,0.257 -1.308,0.257 -1.36,0.257c-1.402,0.332 -2.333,1.82 -1.992,3.309c0.331,1.454 1.745,2.374 3.219,2.081l1.25,-0.231c1.788,-0.351 3.088,-1.925 3.088,-3.743v-13.803c0,-0.665 0.473,-1.25 1.124,-1.391l10.415,-2.495c0.345,-0.069 0.687,0.014 0.948,0.227c0.257,0.21 0.404,0.52 0.404,0.85v9.02c0,1.181 -0.842,2.198 -2.002,2.419l-0.886,0.174c-1.281,0.252 -1.281,0.252 -1.333,0.252c-0.635,0.156 -1.247,0.592 -1.64,1.217c-0.393,0.625 -0.518,1.364 -0.353,2.082c0.331,1.46 1.745,2.383 3.219,2.091l1.251,-0.231c1.788,-0.351 3.089,-1.925 3.089,-3.743v-19.61c0,-0.2 -0.092,-0.39 -0.251,-0.519c-0.123,-0.102 -0.273,-0.155 -0.427,-0.155z" fill="#472b29"></path></g></g></svg>